<svg xmlns="http://www.w3.org/2000/svg" xmlns:xlink="http://www.w3.org/1999/xlink" version="1.1" width="256" height="256" viewBox="0 0 256 256" xml:space="preserve">
<desc>Created with Fabric.js 1.7.22</desc>
<defs>
</defs>
<g transform="translate(8 8) scale(0.04 0.04)" style="">
	<g style="stroke: none; stroke-width: 0; stroke-dasharray: none; stroke-linecap: butt; stroke-linejoin: miter; stroke-miterlimit: 10; fill: none; fill-rule: nonzero; opacity: 1;" transform="translate(-175.05 -175.05000000000004) scale(3.89 3.89)" >
	<path d="M 8 90 c -2.047 0 -4.095 -0.781 -5.657 -2.343 c -3.125 -3.125 -3.125 -8.189 0 -11.314 l 74 -74 c 3.125 -3.124 8.189 -3.124 11.314 0 c 3.124 3.124 3.124 8.189 0 11.313 l -74 74 C 12.095 89.219 10.047 90 8 90 z" style="stroke: none; stroke-width: 1; stroke-dasharray: none; stroke-linecap: butt; stroke-linejoin: miter; stroke-miterlimit: 10; fill: rgb(175,175,175); fill-rule: nonzero; opacity: 1;" transform=" matrix(1 0 0 1 0 0) " stroke-linecap="round" />
	<path d="M 82 90 c -2.048 0 -4.095 -0.781 -5.657 -2.343 l -74 -74 c -3.125 -3.124 -3.125 -8.189 0 -11.313 c 3.124 -3.124 8.189 -3.124 11.313 0 l 74 74 c 3.124 3.125 3.124 8.189 0 11.314 C 86.095 89.219 84.048 90 82 90 z" style="stroke: none; stroke-width: 1; stroke-dasharray: none; stroke-linecap: butt; stroke-linejoin: miter; stroke-miterlimit: 10; fill: rgb(175,175,175); fill-rule: nonzero; opacity: 1;" transform=" matrix(1 0 0 1 0 0) " stroke-linecap="round" />
</g>
</g>
</svg>