<?xml version="1.0" encoding="iso-8859-1"?>
<!-- Generator: Adobe Illustrator 17.1.0, SVG Export Plug-In . SVG Version: 6.00 Build 0)  -->
<!DOCTYPE svg PUBLIC "-//W3C//DTD SVG 1.1//EN" "http://www.w3.org/Graphics/SVG/1.1/DTD/svg11.dtd">
<svg version="1.1" id="Capa_1" xmlns="http://www.w3.org/2000/svg" xmlns:xlink="http://www.w3.org/1999/xlink" x="0px" y="0px"
	 viewBox="0 0 278 278" style="enable-background:new 0 0 278 278;" xml:space="preserve">
<path d="M254.833,0h-98.5h-33h-99.5C15.549,0,8.5,6.716,8.5,15v33c0,8.284,6.716,15,15,15s15-6.716,15-15V30h69v218H89.833
	c-8.284,0-15,6.716-15,15s6.716,15,15,15h99c8.284,0,15-6.716,15-15s-6.716-15-15-15H170.5V30h69v18c0,8.284,6.716,15,15,15
	s15-6.716,15-15V15C269.5,6.716,263.117,0,254.833,0z"/>
<g>
</g>
<g>
</g>
<g>
</g>
<g>
</g>
<g>
</g>
<g>
</g>
<g>
</g>
<g>
</g>
<g>
</g>
<g>
</g>
<g>
</g>
<g>
</g>
<g>
</g>
<g>
</g>
<g>
</g>
</svg>
